<svg xmlns="http://www.w3.org/2000/svg" viewBox="0 0 1600 700" role="img" aria-label="Foto de teste - papelaria premium">
  <defs>
    <linearGradient id="bg" x1="0" y1="0" x2="1" y2="1">
      <stop offset="0%" stop-color="#f6f1e6"/>
      <stop offset="52%" stop-color="#ece3cf"/>
      <stop offset="100%" stop-color="#d9c39a"/>
    </linearGradient>
    <radialGradient id="glowA" cx="18%" cy="20%" r="55%">
      <stop offset="0%" stop-color="#ffffff" stop-opacity=".95"/>
      <stop offset="100%" stop-color="#ffffff" stop-opacity="0"/>
    </radialGradient>
    <radialGradient id="glowB" cx="84%" cy="76%" r="46%">
      <stop offset="0%" stop-color="#caa24e" stop-opacity=".35"/>
      <stop offset="100%" stop-color="#caa24e" stop-opacity="0"/>
    </radialGradient>
    <filter id="shadow" x="-30%" y="-30%" width="160%" height="180%">
      <feDropShadow dx="0" dy="18" stdDeviation="20" flood-color="#000000" flood-opacity=".14"/>
    </filter>
    <filter id="softBlur">
      <feGaussianBlur stdDeviation="30"/>
    </filter>
  </defs>

  <rect width="1600" height="700" fill="url(#bg)"/>
  <rect width="1600" height="700" fill="url(#glowA)"/>
  <rect width="1600" height="700" fill="url(#glowB)"/>

  <g opacity=".18" filter="url(#softBlur)">
    <circle cx="1240" cy="140" r="170" fill="#ffffff"/>
    <circle cx="1340" cy="420" r="190" fill="#c7a44a"/>
    <circle cx="1080" cy="560" r="160" fill="#7c6328"/>
  </g>

  <g transform="translate(870 74)" filter="url(#shadow)">
    <rect x="0" y="0" width="650" height="552" rx="26" fill="#f8f4ea" stroke="#d8c9aa" stroke-opacity=".9"/>
    <rect x="22" y="20" width="606" height="516" rx="20" fill="#fbf8f1" stroke="#ebe1ce"/>

    <g transform="translate(54 66)">
      <rect x="0" y="0" width="232" height="144" rx="16" fill="#ffffff" stroke="#eadfc9"/>
      <rect x="16" y="16" width="112" height="14" rx="7" fill="#d7bd7b"/>
      <rect x="16" y="42" width="160" height="10" rx="5" fill="#2b2720" opacity=".75"/>
      <rect x="16" y="61" width="146" height="8" rx="4" fill="#6f6759" opacity=".55"/>
      <rect x="16" y="78" width="172" height="8" rx="4" fill="#6f6759" opacity=".4"/>
      <rect x="16" y="97" width="84" height="24" rx="12" fill="#1a1816"/>
      <rect x="106" y="97" width="74" height="24" rx="12" fill="#d4b46b"/>
      <circle cx="202" cy="106" r="20" fill="#efe5d0"/>
    </g>

    <g transform="translate(312 52) rotate(-6)">
      <rect x="0" y="0" width="270" height="172" rx="20" fill="#131214"/>
      <rect x="12" y="12" width="246" height="148" rx="14" fill="#17161a" stroke="#c8a44a" stroke-opacity=".35"/>
      <rect x="26" y="28" width="100" height="10" rx="5" fill="#d7bd7b"/>
      <rect x="26" y="50" width="190" height="12" rx="6" fill="#ffffff" opacity=".86"/>
      <rect x="26" y="70" width="176" height="10" rx="5" fill="#ffffff" opacity=".56"/>
      <rect x="26" y="100" width="82" height="30" rx="15" fill="#d0ab57"/>
      <rect x="118" y="100" width="82" height="30" rx="15" fill="#ffffff" opacity=".95"/>
    </g>

    <g transform="translate(84 248)">
      <rect x="0" y="0" width="480" height="226" rx="22" fill="#ffffff" stroke="#eadfc9"/>
      <rect x="24" y="20" width="200" height="16" rx="8" fill="#171514" opacity=".9"/>
      <rect x="24" y="52" width="420" height="10" rx="5" fill="#8a816f" opacity=".45"/>
      <rect x="24" y="72" width="396" height="10" rx="5" fill="#8a816f" opacity=".35"/>
      <rect x="24" y="92" width="412" height="10" rx="5" fill="#8a816f" opacity=".28"/>
      <rect x="24" y="126" width="420" height="72" rx="16" fill="#f4ecdb" stroke="#e3d3b1"/>
      <rect x="40" y="142" width="188" height="40" rx="12" fill="#cfaa57"/>
      <rect x="240" y="142" width="188" height="40" rx="12" fill="#1a1714"/>
    </g>
  </g>

  <g opacity=".22">
    <path d="M0 552C220 500 310 614 475 614c198 0 224-132 430-132 153 0 194 74 323 74 114 0 188-53 372-53v197H0Z" fill="#ffffff"/>
  </g>
</svg>
