<svg xmlns="http://www.w3.org/2000/svg" viewBox="0 0 1600 700" role="img" aria-label="Foto de teste - promocionais e campanhas">
  <defs>
    <linearGradient id="bgDark" x1="0" y1="0" x2="1" y2="1">
      <stop offset="0%" stop-color="#111113"/>
      <stop offset="55%" stop-color="#191a1f"/>
      <stop offset="100%" stop-color="#2d2418"/>
    </linearGradient>
    <radialGradient id="hot" cx="82%" cy="24%" r="48%">
      <stop offset="0%" stop-color="#d7b562" stop-opacity=".45"/>
      <stop offset="100%" stop-color="#d7b562" stop-opacity="0"/>
    </radialGradient>
    <radialGradient id="cold" cx="14%" cy="80%" r="42%">
      <stop offset="0%" stop-color="#ffffff" stop-opacity=".18"/>
      <stop offset="100%" stop-color="#ffffff" stop-opacity="0"/>
    </radialGradient>
    <filter id="shadow" x="-40%" y="-40%" width="190%" height="190%">
      <feDropShadow dx="0" dy="20" stdDeviation="22" flood-color="#000" flood-opacity=".28"/>
    </filter>
  </defs>

  <rect width="1600" height="700" fill="url(#bgDark)"/>
  <rect width="1600" height="700" fill="url(#hot)"/>
  <rect width="1600" height="700" fill="url(#cold)"/>

  <g opacity=".08">
    <path d="M0 98h1600M0 174h1600M0 250h1600M0 326h1600M0 402h1600M0 478h1600M0 554h1600M0 630h1600" stroke="#fff"/>
    <path d="M120 0v700M284 0v700M448 0v700M612 0v700M776 0v700M940 0v700M1104 0v700M1268 0v700M1432 0v700" stroke="#fff"/>
  </g>

  <g transform="translate(112 110)" filter="url(#shadow)">
    <g transform="rotate(-8 250 180)">
      <rect x="18" y="18" width="500" height="320" rx="26" fill="#0f1013" opacity=".65"/>
      <rect x="0" y="0" width="500" height="320" rx="26" fill="#1a1c23" stroke="#d3b46d" stroke-opacity=".32"/>
      <rect x="24" y="24" width="452" height="114" rx="18" fill="#d4b25f"/>
      <rect x="44" y="48" width="156" height="10" rx="5" fill="#16130e" opacity=".8"/>
      <rect x="44" y="70" width="274" height="16" rx="8" fill="#16130e" opacity=".88"/>
      <rect x="44" y="98" width="228" height="12" rx="6" fill="#16130e" opacity=".48"/>
      <rect x="24" y="156" width="452" height="140" rx="18" fill="#ffffff"/>
      <rect x="44" y="178" width="250" height="14" rx="7" fill="#17181c" opacity=".9"/>
      <rect x="44" y="204" width="392" height="10" rx="5" fill="#73757e" opacity=".45"/>
      <rect x="44" y="223" width="370" height="10" rx="5" fill="#73757e" opacity=".32"/>
      <rect x="44" y="250" width="120" height="28" rx="14" fill="#17181c"/>
      <rect x="176" y="250" width="120" height="28" rx="14" fill="#e4c678"/>
    </g>

    <g transform="translate(404 108) rotate(10 260 160)">
      <rect x="18" y="18" width="520" height="330" rx="28" fill="#0f1013" opacity=".55"/>
      <rect x="0" y="0" width="520" height="330" rx="28" fill="#15161b" stroke="#ffffff" stroke-opacity=".12"/>
      <rect x="26" y="24" width="468" height="166" rx="18" fill="#ffffff"/>
      <rect x="44" y="44" width="148" height="10" rx="5" fill="#d2b05d"/>
      <rect x="44" y="66" width="360" height="14" rx="7" fill="#1b1d23" opacity=".9"/>
      <rect x="44" y="91" width="328" height="11" rx="5" fill="#5f6472" opacity=".42"/>
      <rect x="44" y="116" width="98" height="26" rx="13" fill="#d4b260"/>
      <rect x="154" y="116" width="98" height="26" rx="13" fill="#0f1014"/>
      <rect x="26" y="208" width="468" height="96" rx="16" fill="#d3b15f"/>
      <rect x="44" y="228" width="220" height="14" rx="7" fill="#1b1711" opacity=".9"/>
      <rect x="44" y="252" width="360" height="10" rx="5" fill="#1b1711" opacity=".35"/>
      <circle cx="440" cy="256" r="24" fill="#ffffff" opacity=".82"/>
    </g>
  </g>

  <g opacity=".14">
    <circle cx="1460" cy="604" r="138" fill="#d3b46b"/>
    <circle cx="1320" cy="566" r="94" fill="#fff"/>
  </g>
</svg>
