<svg xmlns="http://www.w3.org/2000/svg" viewBox="0 0 96 96" role="img" aria-label="Uriah Criativa">
  <defs>
    <linearGradient id="uriahFavGold" x1="0" y1="0" x2="1" y2="1">
      <stop offset="0%" stop-color="#f1dfad"/>
      <stop offset="32%" stop-color="#ddc06e"/>
      <stop offset="62%" stop-color="#c7a44a"/>
      <stop offset="100%" stop-color="#9e7a27"/>
    </linearGradient>
  </defs>

  <rect x="4" y="4" width="88" height="88" rx="22" fill="#ffffff"/>
  <rect x="4.75" y="4.75" width="86.5" height="86.5" rx="21.25" fill="none" stroke="#c7a44a" stroke-opacity=".22"/>

  <g fill="none" stroke="url(#uriahFavGold)" stroke-linecap="round" stroke-linejoin="round">
    <path d="M34 35a14 14 0 0 1 28 0" stroke-width="3.9"/>

    <path d="M48 14v10" stroke-width="3"/>
    <path d="M37 17l6 9" stroke-width="3"/>
    <path d="M27 24l9 6" stroke-width="3"/>
    <path d="M20 36h8" stroke-width="3"/>
    <path d="M59 26l6-9" stroke-width="3"/>
    <path d="M60 30l9-6" stroke-width="3"/>
    <path d="M68 36h8" stroke-width="3"/>
  </g>

  <g fill="none" stroke="url(#uriahFavGold)" stroke-linecap="round" stroke-linejoin="round">
    <path d="M27 45v17c0 14 8 21 21 21s21-7 21-21V45" stroke-width="6.2"/>
    <path d="M23 44h8" stroke-width="4"/>
    <path d="M65 44h8" stroke-width="4"/>
  </g>
</svg>
